<?xml version="1.0" encoding="iso-8859-1"?>
<!-- Generator: Adobe Illustrator 19.0.0, SVG Export Plug-In . SVG Version: 6.00 Build 0)  -->
<svg version="1.1" id="Capa_1" xmlns="http://www.w3.org/2000/svg" xmlns:xlink="http://www.w3.org/1999/xlink" x="0px" y="0px"
	 viewBox="0 0 359.002 359.002" style="enable-background:new 0 0 359.002 359.002;" xml:space="preserve">
<g>
	<g>
		<path style="fill:#3A4971;" d="M213.083,189.002h-10.4c-0.9-3.1-2.1-6.1-3.6-9h14c5.5,0,10-4.5,10-10s-4.5-10-10-10h-67.2c-5.5,0-10,4.5-10,10
			s4.5,10,10,10h19.2c6.7,0,12.6,4,16,9h-35.2c-5.5,0-10,4.5-10,10s4.5,10,10,10h35.2c-0.8,1.2-1.7,2.3-2.6,3.4
			c-3.5,3.6-8.3,5.6-13.4,5.6h-19.2c-5.5-0.1-9.9,4.3-10,9.8c0,2.8,1.1,5.4,3.1,7.3l48.1,45.4c4,3.8,10.4,3.6,14.1-0.4
			c3.8-4,3.6-10.4-0.4-14.1l-30.2-28.6c8.3-1.2,16.1-5,22-11c4.9-4.7,8.4-10.8,10.1-17.4h10.4c5.5,0,10-4.5,10-10
			S218.583,189.002,213.083,189.002z"/>
	</g>
</g>
<g>
	<g>
		<path style="fill:#3A4971;" d="M349.483,162.902l-39-34.1l-25-21.9v-97.1c-0.1-5.5-4.7-9.9-10.2-9.8h-51c-5.3-0.1-9.7,4.2-9.8,9.6c0,0.1,0,0.2,0,0.3v35
			l-26.7-23.3c-3.8-3.3-9.4-3.3-13.1-0.1l-165,141.3c-4.2,3.6-4.7,9.9-1.1,14.1c1.9,2.2,4.7,3.5,7.6,3.5c2.4,0,4.7-0.8,6.6-2.4
			l22.7-19.4v189.8c0,5.5,4.4,10.6,9.9,10.6h248.2c5.5,0,9.9-5.1,9.9-10.6v-190.2l22.7,19.8c4.2,3.7,10.5,3.2,14.1-0.9
			C353.983,172.902,353.583,166.602,349.483,162.902z M234.483,20.002h31v69.4l-31-27.1V20.002z M293.483,339.002h-228v-197.6
			l115.6-99.1l36.6,32l50.3,43.9c0.5,0.6,1.1,1.1,1.8,1.6l23.7,20.9V339.002z"/>
	</g>
</g>
<g>
</g>
<g>
</g>
<g>
</g>
<g>
</g>
<g>
</g>
<g>
</g>
<g>
</g>
<g>
</g>
<g>
</g>
<g>
</g>
<g>
</g>
<g>
</g>
<g>
</g>
<g>
</g>
<g>
</g>
</svg>
